<?xml version="1.0" encoding="utf-8"?>
<!-- Generator: Adobe Illustrator 24.0.1, SVG Export Plug-In . SVG Version: 6.00 Build 0)  -->
<svg version="1.1" id="Camada_1" xmlns="http://www.w3.org/2000/svg" xmlns:xlink="http://www.w3.org/1999/xlink" x="0px" y="0px"
	 viewBox="0 0 193.5 226.8" style="enable-background:new 0 0 193.5 226.8;" xml:space="preserve">
<style type="text/css">
	.st0{fill:#E06869;}
	.st1{fill:#F7BEC0;}
	.st2{fill:#FFFFFF;}
	.st3{fill:#F7BEC0;stroke:#B42521;stroke-width:3.1282;stroke-miterlimit:10;}
	.st4{fill:none;stroke:#B9332F;stroke-width:3;stroke-miterlimit:10;}
	.st5{fill:#B42521;}
	.st6{fill:#FFFFFF;stroke:#B42521;stroke-width:2.0132;stroke-miterlimit:10;}
	.st7{fill:#FFFFFF;stroke:#B42521;stroke-width:2.0529;stroke-miterlimit:10;}
	.st8{fill:#E06869;stroke:#B42521;stroke-width:2.2942;stroke-miterlimit:10;}
	.st9{fill:#FAE0D1;}
	.st10{fill:#B42521;stroke:#B42521;stroke-miterlimit:10;}
	.st11{fill:#B42521;stroke:#B42521;stroke-width:2;stroke-miterlimit:10;}
	.st12{fill:#FFFFFF;stroke:#B42521;stroke-width:2;stroke-miterlimit:10;}
	.st13{fill:none;stroke:#B42521;stroke-width:2;stroke-miterlimit:10;}
	.st14{fill:#B9332F;}
</style>
<g>
	<g>
		<g>
			<path class="st14" d="M194,144.5l-2.1,3c-1.5,2.3-4.2,3.7-6.8,4.3l5,11.1l-3.1,2.2c-2.2,1.5-5,2.1-7.5,2l2.8,14.4l-3.1,1.6
				c-1.7,0.8-3.9,1.3-6,1.2l1.6,11.5l-3.3,1.4c-1.5,0.6-4.1,1.3-6.5,1.1l-1.6,7.5l-3.8-0.1c-1.5,0-3.2-0.3-4.6-0.6
				c-0.2,0-0.4-0.1-0.7-0.1c-4.7,6.7-9.9,10.8-16.6,13.2c-2,0.7-4.2,0.4-5.9-1c-0.4-0.3-0.7-0.6-1-1c-2.6,2-5.1,3.8-7.9,5.5
				c-3.3,2-6.5,2.5-9.1,1.2c-0.8-0.4-2-1.2-2.9-2.6c-12.2,4.2-23,6.4-32.5,6.4c-10.8,0-20.2-2.7-28.7-8.2c-0.4,0.3-0.7,0.6-1.1,0.8
				c-1.8,0.9-3.8,0.9-5.6,0c-4.5-2.4-6.7-6.2-8-10.2l-2.3-0.9c-2.1-0.8-3.7-2.6-5.3-4.5l-0.8,1.1c-1.4,1.9-3.7,2.8-6,2.3
				c-2.3-0.4-4.1-2.1-4.7-4.4c-1.4-5-0.7-9.7,0.4-14c-0.5,0.4-1,0.7-1.3,1.1l-2.2,2.4l-3-1.3c-4.9-2.2-3.5-7.6-0.1-20.8
				c0.3-1.2,0.6-2.4,0.9-3.6l-1.5,0.8L7,164.7c-2.7-2.9-1.7-8-0.3-11.8c0,0,0,0-0.1,0c-2,0.3-4.1-0.4-5.5-2.1
				c-1.7-2-1.9-4.9-0.4-7.2c1.4-2.1,3-5.4,4.3-8.5l-1.5,0.5l-1.8-3.2c-2.1-3.6,0.3-7.8,3.9-14.3c0.9-1.7,1.9-3.5,2.7-5l-0.4-0.6
				c-1.8-2.6-1.2-6.2-0.6-10.7c0.1-0.6,0.2-1.4,0.3-2.2l-0.2-0.3c-1.8-2.4-1.6-6-0.9-9.2c-1.3-0.9-2.1-2.2-2.4-3.8
				c-0.4-1.9,0.1-3.7,1.4-5.2l0.1-0.1l-1.2-1.6c-1.1-1.5-1.5-3.5-1-5.3c0.3-1.1,0.9-2,1.7-2.8l-5.6-10.8l5.2,0.1
				c0.7-8.9,2.1-30.7,2.6-42.9c0.1-2.8,1.1-5.3,2-7.4c2.2-5.3,5.9-8.7,10.2-9.8c3.8-0.9,7.9,0.1,11.4,3c5.6,4.5,17.1,18.3,30.5,34.4
				c2.2,2.6,4.2,5,5.9,7c1.7-0.6,3.5-0.6,5.1,0.3l2.4,1.3c0.5-0.8,1.2-1.5,2.1-2c1.7-1,3.7-1.1,5.4-0.3c0.6-1,1.4-1.8,2.4-2.4
				c2-1.1,4.4-0.9,6.2,0.3c1.1,0.7,2,1.3,2.7,1.6c0.2,0,0.5-0.1,1.1-0.5c2.2-1.4,5.1-1.1,7.1,0.6c1.1-0.8,2.5-1.2,4-1.1
				c1.6,0.1,3,0.8,4.1,1.9c1.5-0.9,3.3-1.2,5-0.6c0.2,0.1,0.4,0.2,0.6,0.2c8.6-10.5,30-34.6,37.3-39.8c4.6-3.3,9.8-4.2,14.3-2.4
				c4.5,1.8,7.7,6,8.8,11.7c2.2,11.7,3.8,43.3,3.8,47.7c0,0,0.1,0.5,1,1.8c1,1.3,1.2,2.6,1.2,3.5c0,1.6-0.6,2.9-1.1,4
				c0.8,0.9,1.4,1.9,1.6,3.2c0.3,1.9-0.3,3.8-1.6,5.2l-0.2,0.2l2.1,2.5c1.3,1.6,1.7,3.7,1.1,5.7c-0.5,1.6-1.5,2.8-3,3.5
				c0.5,1.7,0.2,3.6-0.8,5.1c-0.6,0.9-1.4,1.6-2.3,2l10.2,21.9c1.3,2.8-0.3,5-1.8,6.3l2.8,3.1c2.7,3.1,0.7,6.5-1,8.6L194,144.5z"/>
		</g>
	</g>
	<g>
		<path class="st2" d="M181.4,147.5c1.3,0.5,5.7-0.2,7.3-2.6c-2.2-2.3-4.3-4.6-6.5-6.9c1-1.8,4.6-4.8,3.6-5.8l-5.6-6.3
			c-0.1-0.1-0.2-0.4-0.1-0.6c0.6-1.2,4.3-2.9,4-3.6c-4.1-8.9-8.1-17.4-12.1-25.9c-0.5-1,0.3-2.1,1.4-2l1.8,0.2
			c1.2,0.1,2-1.1,1.4-2.1l-1.5-3c-0.2-0.5,0-1,0.5-1.2l3.1-0.8c1-0.3,1.4-1.5,0.7-2.4c-1.4-1.7-2.6-3.1-3.9-4.6
			c-0.5-0.6-0.4-1.4,0.1-1.9l2.1-2.2c0.7-0.7,0.5-1.8-0.3-2.3c-3.7-2,0.2-4.6,0.2-6.9c0-0.3-0.1-0.5-0.3-0.7c-1-1.4-1.9-2.9-1.9-4.4
			c0-4-1.5-35.4-3.7-46.9C170.3,6.1,163,3.1,156,8.2c-7.2,5.2-32.2,33.2-38.5,41.6c-0.7,0.9-2.1,0.7-2.5-0.4l-0.1-0.2
			c-0.3-0.9-1.4-1.2-2.2-0.7c-0.9,0.6-1.7,1.1-2.6,1.7c-0.7,0.5-1.7,0.2-2.1-0.6l-0.8-1.6c-0.5-1-1.9-1.1-2.5-0.2l-0.8,1.2
			c-0.5,0.7-1.5,0.8-2.1,0.3l-2.4-2.1c-0.5-0.4-1.2-0.5-1.7-0.2c-1.7,1.1-3.4,1.4-4.8,1c-1.4-0.4-2.6-1.3-4-2.2
			c-1-0.7-2.3,0-2.3,1.2v1.7c0,1.1-1.1,1.8-2.1,1.3L81,48.4c-0.9-0.5-2,0.2-2.1,1.2l-0.1,1.7c-0.1,1.1-1.2,1.7-2.2,1.2
			c-2.1-1.1-4-2.2-6-3.3c-1-0.5-2.2,0.2-2.2,1.4l0.1,1.3c0,0.3-0.4,0.5-0.6,0.3c-6.6-7.4-31.5-38.7-39.5-45.2C22.7,2.2,16.9,5,14,12
			c-0.8,1.8-1.5,3.9-1.6,5.8c-0.6,13.9-2.6,45.5-3.1,47.4c-0.6,0-1.1,0-1.7,0c1.1,2.2,2.2,4.4,3.4,6.7c0.4,0.8,0,1.7-0.8,2.1
			l-1.1,0.4c-0.9,0.4-1.2,1.5-0.6,2.3l2.7,3.6c0.4,0.6,0.4,1.3-0.1,1.8L9.3,84c-0.6,0.7-0.4,1.8,0.4,2.3l1.6,0.8
			c0.8,0.4,1.1,1.4,0.5,2.1c0,0-1.6,5.4-0.4,7.1l1.1-0.4c1.2,1.7-1.9,11.7-0.5,13.8l0.4-0.2c1.1-0.4,2.3,0.7,1.9,1.8
			c-2.2,6.2-9.6,16.3-8.3,18.6c2.8-0.9,5.4,1.8,4.4,4.6c-1.4,3.9-3.7,8.7-5.5,11.5c-0.8,1.2,0.5,2.7,1.8,2.1c0,0,4.9,0.3,6.5,2.2
			c-1.7,2.7-3.9,9.6-2.4,11.2c1.4-0.8,2.9-1.5,4.4-2.4c1.1-0.6,2.4,0.3,2.1,1.5c-1.7,9-7,25-5,26c2.3-2.4,8.9-6.2,11.1-5.1
			c-1.3,6.5-4.3,13-2.4,19.9c0.3,1.2,1.9,1.5,2.6,0.5l2-2.7c1.2-1.6,3.5-1.6,4.8-0.1c1.5,1.9,3.1,4.1,4.6,4.7l1-1.6
			c0.7-1.1,2.3-0.8,2.7,0.4c1.3,5.5,2.5,10,7.1,12.5c0.9,0.5,2-0.1,2.1-1.1l0.1-1.1c0.1-0.7,1-1.1,1.6-0.6
			c16,12.1,35.5,12.8,63.4,2.6c0.9-0.3,1.9,0.3,2,1.2c0.4,3.6,3.3,3.5,6.2,1.7c3.9-2.4,7.6-5.3,11.5-8.3c1-0.8,2.5,0.1,2.3,1.3
			l-0.2,1.4c-0.1,1.1,0.9,2,2,1.6c7.2-2.6,11.8-7.4,15.6-13.3c0.7-1.1,4.9,0.5,7.8,0.6c0.5-2.3,1-4.7,1.5-7.2
			c0.3-1.2,1.8-1.6,2.6-0.6c0.4,0.5,3.4,0.6,5.9-0.4c-0.6-4.1-1.2-8.3-1.8-12.8c-0.2-1.4,1.6-2.3,2.5-1.2c0.7,0.8,4.2,1.2,6.7,0
			c-1-5.2-2.1-10.5-3.2-16.1c-0.3-1.4,1.4-2.3,2.5-1.3c1.1,1.1,5.3,1.7,8-0.2l-5.3-12C179,148.3,180.2,147.1,181.4,147.5z M43,68.7
			c-4.7,2.4-9.3,4.9-14,7.3c-0.5,0.3-1-0.6-1.2-1.1c0,0,8.1-6.9,12.8-9.5c0.7-0.4,2.1,0.6,2.5,1.3l0.3,0.6
			C43.7,67.9,43.5,68.5,43,68.7z M48,63.2c-1.2-0.1-1.9-1.5-1.2-2.5c0.4-0.7,0.8-1.1,0.7-1.4c-3.3-9-8.4-18.4-16.1-25.9
			c-0.8-0.8,2.7-2.3,3.5-1.5c8.8,7.9,13.2,18.3,18.2,29.2c0.5,1-2.3,2.4-3.4,2.3L48,63.2z M49,123.6c-0.6-0.5-0.7-1.4-0.2-2
			c3-4.2,6.7-6.9,12-6.3c4.8,0.6,7.8,3.5,9,9c0.2,0.6-0.2,1.3-0.8,1.6c-3.3,1.7-2.1,4-9.9,4.1C52.7,129.9,52,126.2,49,123.6z
			 M99.5,196.8c-4.6,2.7-11.3,2.6-16,0c-1.3-0.7-0.8-2.7,0.7-2.7h14.6C100.4,194.1,100.8,196.1,99.5,196.8z M116.2,188.5
			c-7,2.6-14.2,2.8-21.4,0.1c-2.3-0.8-6-0.8-8.2,0c-10.6,3.9-21.9,0.9-26.1-7.7c-1.2-2.4-2-5.6-2.5-8.4c-0.1-0.4,0-0.7,0.2-1.1
			c0.2-0.4,0.7-0.5,1.1-0.2c0.3,0.3,0.5,0.7,0.7,1.1c3.6,13,10.5,17,23.5,13.4c2.3-0.6,5-3,5.7-5.1c0.5-1.5-1.9-4.3-3.5-6
			c-1.7-1.7-3.8-3.2-5.8-4.7c-9.2-7.4-7.1-15.3,4.6-17c5.1-0.7,10.5-0.8,15.5-0.2c7.1,0.9,9.5,8.2,4.9,13.9c-2.8,3.4-6.5,6-9.8,9
			c-4.4,3.8-3.6,8,1.8,10.1c9.6,3.8,18.7,0.9,24.8-7.6c0.9-1.3,2.9-0.4,2.6,1.1C123.5,183.2,120.6,186.9,116.2,188.5z M134.6,121.2
			c-4.3,11.8-12.2,9.3-20.4,5.5c-0.7-0.3-1-1.1-0.8-1.8c1.7-5,4.7-8.9,10.5-10c4.9-0.9,8.1,1.9,10.5,5
			C134.7,120.2,134.8,120.8,134.6,121.2z M143.2,62.1c-2.3,0.3-4.7,0.7-7.5,1.1c-1.1,0.2-2-0.9-1.6-2C138.8,49,144,38.4,154,30.7
			c0.3-0.2,1.5,0.6,1.2,0.9c-12.5,15.2-11.2,16.8-15.3,24.1c-1.5,2.6-0.2,3.6,1.6,4.1c1,0.3,1.3,0.3,2,0.7
			C144.2,60.9,144,62,143.2,62.1z M150.2,71.9c-1.7-0.8-3.3-1.5-5.1-2.4c-1.4-0.6-1-2.7,0.5-2.8c2.1-0.1,3.8,0.6,6.1,2.7
			C153,70.6,151.7,72.6,150.2,71.9z M149.4,45.4c-0.5,0.1-1.2-0.4-1.2-1c0-0.7,6.8-5.8,7.9-4.7C157.3,40.9,152,45,149.4,45.4z"/>
		<path class="st2" d="M62.4,122.5c1.2,0,2.2-1,2.2-2.2c0-1.2-1-2.2-2.2-2.2c-1.2,0-2.2,1-2.2,2.2C60.2,121.6,61.1,122.5,62.4,122.5
			z"/>
		<path class="st2" d="M122,118.2c-1.2,0-2.2,1-2.2,2.2s1,2.2,2.2,2.2s2.2-1,2.2-2.2S123.2,118.2,122,118.2z"/>
	</g>
</g>
</svg>
